<svg id="SvgjsSvg1001" width="288" height="288" xmlns="http://www.w3.org/2000/svg" version="1.1" xmlns:xlink="http://www.w3.org/1999/xlink" xmlns:svgjs="http://svgjs.com/svgjs"><defs id="SvgjsDefs1002"></defs><g id="SvgjsG1008"><svg xmlns="http://www.w3.org/2000/svg" viewBox="0 0 32 32" width="288" height="288"><path d="M30 3.4141l-1.4141-1.4141-26.5859 26.5859 1.4141 1.4141 2-2h20.5859a2.0027 2.0027 0 002-2v-20.5859zm-4 22.5859h-18.5859l7.7929-7.793 2.3788 2.3787a2 2 0 002.8284 0l1.5858-1.5857 4 3.9973zm0-5.8318l-2.5858-2.5859a2 2 0 00-2.8284 0l-1.5858 1.5859-2.377-2.3771 9.377-9.377zM6 22v-3l5-4.9966 1.3733 1.3733 1.4159-1.416-1.375-1.375a2 2 0 00-2.8284 0l-3.5858 3.5859v-10.1716h16v-2h-16a2.002 2.002 0 00-2 2v16z" fill="#000000" class="color000 svgShape"></path><path fill="none" d="m0 0h32v32h-32z"></path></svg></g></svg>