<svg id="SvgjsSvg1001" width="288" height="288" xmlns="http://www.w3.org/2000/svg" version="1.1" xmlns:xlink="http://www.w3.org/1999/xlink" xmlns:svgjs="http://svgjs.com/svgjs"><defs id="SvgjsDefs1002"></defs><g id="SvgjsG1008"><svg xmlns="http://www.w3.org/2000/svg" viewBox="0 0 613.77 464.111" width="288" height="288"><rect width="613.77" height="464.111" opacity="0" fill="#ffffff" class="color000 svgShape"></rect><path fill="#000000" fill-opacity=".85" d="M482.422 424.316C556.152 424.316 613.77 370.361 613.77 303.223C613.77 251.953 584.229 207.52 536.621 187.5C537.109 78.6133 458.74 0 358.887 0C292.725 0 245.605 35.4004 216.309 78.125C156.25 60.5469 90.8203 106.201 89.5996 174.561C34.4238 183.35 0 232.666 0 292.236C0 364.014 62.7441 424.316 146.24 424.316ZM482.422 385.01L146.24 385.01C84.7168 385.01 39.3066 342.041 39.3066 292.236C39.3066 243.408 68.8477 204.59 120.605 204.59C124.023 204.59 125.244 202.881 125.244 199.707C125.244 124.512 179.443 102.295 229.492 118.652C232.422 119.629 234.131 118.896 235.596 116.211C259.277 73.9746 295.654 39.3066 358.887 39.3066C438.965 39.3066 494.385 102.783 498.535 175.293C499.268 186.523 498.535 199.707 497.559 211.182C497.314 214.355 498.535 216.064 501.465 216.797C545.898 226.562 574.463 259.033 574.463 303.223C574.463 348.633 534.424 385.01 482.422 385.01ZM307.129 257.324C318.848 257.324 325.439 250.488 325.928 237.793L329.346 148.193C329.834 134.766 319.824 125.488 306.885 125.488C293.701 125.488 284.18 134.521 284.668 147.949L288.086 237.793C288.574 250.244 294.922 257.324 307.129 257.324ZM306.885 335.205C321.045 335.205 333.252 323.975 333.252 309.814C333.252 295.654 321.289 284.424 306.885 284.424C292.48 284.424 280.518 295.898 280.518 309.814C280.518 323.73 292.725 335.205 306.885 335.205Z" class="colorfff svgShape"></path></svg></g></svg>