<?xml version="1.0" encoding="UTF-8"?>
<svg xmlns="http://www.w3.org/2000/svg" xmlns:xlink="http://www.w3.org/1999/xlink" width="25px" height="25px" viewBox="0 0 25 25" version="1.1">
<g id="surface1">
<path style=" stroke:none;fill-rule:nonzero;fill:rgb(100%,67.45098%,20%);fill-opacity:1;" d="M 18.949219 24.046875 C 18.667969 24.046875 18.390625 23.960938 18.148438 23.789062 L 12.5 19.738281 L 6.851562 23.789062 C 6.371094 24.132812 5.722656 24.132812 5.246094 23.785156 C 4.765625 23.4375 4.566406 22.820312 4.746094 22.257812 L 6.851562 15.460938 L 1.253906 11.515625 C 0.777344 11.164062 0.578125 10.546875 0.761719 9.984375 C 0.945312 9.421875 1.464844 9.042969 2.058594 9.039062 L 8.992188 9.027344 L 11.199219 2.398438 C 11.382812 1.835938 11.910156 1.457031 12.5 1.457031 C 13.089844 1.457031 13.617188 1.835938 13.800781 2.398438 L 15.972656 9.027344 L 22.941406 9.039062 C 23.535156 9.042969 24.058594 9.425781 24.238281 9.984375 C 24.421875 10.546875 24.222656 11.164062 23.746094 11.515625 L 18.148438 15.460938 L 20.253906 22.257812 C 20.433594 22.820312 20.230469 23.4375 19.753906 23.785156 C 19.515625 23.960938 19.230469 24.046875 18.949219 24.046875 Z M 18.949219 24.046875 "/>
</g>
</svg>
