<svg id="SvgjsSvg1012" width="288" height="288" xmlns="http://www.w3.org/2000/svg" version="1.1" xmlns:xlink="http://www.w3.org/1999/xlink" xmlns:svgjs="http://svgjs.com/svgjs"><defs id="SvgjsDefs1013"></defs><g id="SvgjsG1014"><svg xmlns="http://www.w3.org/2000/svg" viewBox="0 0 477.051 481.689" width="288" height="288"><rect width="477.051" height="481.689" opacity="0" fill="#ffffff" class="color000 svgShape"></rect><path fill="#000000" fill-opacity=".85" d="M0 194.824C0 302.246 87.4023 389.648 194.824 389.648C237.305 389.648 276.123 375.977 308.105 353.027L428.223 473.389C433.838 479.004 441.162 481.689 448.975 481.689C465.576 481.689 477.051 469.238 477.051 452.881C477.051 445.068 474.121 437.988 468.994 432.861L349.609 312.744C374.756 280.029 389.648 239.258 389.648 194.824C389.648 87.4023 302.246 0 194.824 0C87.4023 0 0 87.4023 0 194.824ZM41.748 194.824C41.748 110.352 110.352 41.748 194.824 41.748C279.297 41.748 347.9 110.352 347.9 194.824C347.9 279.297 279.297 347.9 194.824 347.9C110.352 347.9 41.748 279.297 41.748 194.824Z" class="colorfff svgShape"></path></svg></g></svg>